<svg width="648" height="577" viewBox="0 0 648 577" fill="none" xmlns="http://www.w3.org/2000/svg">
<path d="M594.059 303.39C596.994 325.822 603.531 350.083 596.028 367.668C588.452 385.126 566.982 396.162 546.074 399.058C525.167 401.953 504.842 397.037 487.599 391.87C470.282 386.576 456.12 381.159 444.553 372.886C432.912 364.484 424.12 353.079 413.955 340.767C403.918 328.381 392.764 314.942 391.73 301.096C390.824 287.177 400.093 272.65 405.963 253.119C411.76 233.461 414.286 208.725 426.778 200.663C439.196 192.474 461.983 201.067 484.039 201.925C506.169 202.912 527.769 196.218 545.723 201.144C563.803 205.997 578.184 222.672 585.114 241.438C591.971 260.078 591.251 280.883 594.059 303.39Z" fill="#FF90E7"/>
<path d="M211.264 435.32C197.477 453.258 184.945 475.035 167.205 482.164C149.503 489.151 126.518 481.774 109.687 469.037C92.8554 456.301 81.9604 438.453 73.4209 422.606C64.9194 406.618 58.7354 392.774 56.4063 378.744C54.1153 364.572 55.9633 350.29 57.4822 334.397C59.143 318.542 60.7587 301.151 69.8184 290.63C79.0201 280.147 95.846 276.429 113.807 266.77C131.807 256.968 151.084 241.263 165.617 244.396C180.189 247.386 190.226 269.575 205.214 285.778C220.165 302.124 240.172 312.664 249.384 328.843C258.737 345.059 257.115 367.018 248.746 385.189C240.414 403.218 225.193 417.42 211.264 435.32Z" fill="#FDDD00"/>
<path d="M136.351 224.718C118.413 210.932 96.6351 198.399 89.5061 180.659C82.5192 162.957 89.8969 139.972 102.633 123.141C115.369 106.31 133.218 95.4146 149.064 86.8751C165.052 78.3736 178.896 72.1896 192.926 69.8605C207.098 67.5695 221.38 69.4176 237.273 70.9364C253.128 72.5972 270.519 74.2129 281.04 83.2726C291.523 92.4743 295.241 109.3 304.901 127.262C314.702 145.261 330.407 164.538 327.275 179.072C324.284 193.643 302.096 203.68 285.892 218.669C269.547 233.619 259.007 253.627 242.828 262.838C226.611 272.192 204.652 270.569 186.481 262.2C168.453 253.868 154.251 238.647 136.351 224.718Z" fill="#FA4238"/>
<path d="M472.182 185.089L472.185 185.091C478.909 191.869 485.974 198.586 493.039 205.302C494.664 206.846 496.288 208.39 497.908 209.935C506.579 218.202 515.134 226.495 522.959 234.944C538.614 251.849 551.301 269.336 556.137 288.435C565.53 326.522 544.12 371.559 513.323 402.572C482.55 433.559 442.922 450.976 407.985 464.132C372.766 477.17 342.653 486.018 313.248 486.911C286.697 487.605 260.88 481.489 232.631 474.796C229.292 474.005 225.919 473.206 222.506 472.409C221.72 472.218 220.933 472.027 220.144 471.835C204.789 468.107 188.86 464.239 174.405 458.824C159.207 453.131 145.69 445.745 136.209 435.062C126.786 424.235 121.317 409.964 116.341 393.387C114.869 388.484 113.44 383.377 111.965 378.104C108.46 365.579 104.691 352.109 99.4517 338.16L99.4508 338.157C95.759 328.482 91.37 318.556 86.9983 308.669L86.6326 307.841C82.1382 297.676 77.6831 287.56 74.0288 277.782C66.7087 258.194 62.6609 240.101 67.8297 225.783L67.8314 225.778C72.8594 211.407 87.3459 200.585 105.413 190.029C111.373 186.547 117.72 183.095 124.225 179.558C137.371 172.41 151.162 164.91 163.708 156.098C179.106 145.411 192.759 132.727 205.926 120.495C208.931 117.703 211.911 114.935 214.88 112.22C230.881 97.5867 246.582 84.4798 264.399 77.2923L264.402 77.2912C300.138 62.6419 344.66 72.0021 379.608 94.1955C396.931 105.227 411.829 119.531 426.524 135.295C432.254 141.442 437.959 147.819 443.767 154.309C452.832 164.44 462.145 174.848 472.182 185.089Z" fill="#FDDD00" stroke="black"/>
<mask id="mask0_84_492" style="mask-type:alpha" maskUnits="userSpaceOnUse" x="150" y="150" width="305" height="305">
<path d="M302.74 454.744C386.689 454.744 454.743 386.689 454.743 302.74C454.743 218.791 386.689 150.737 302.74 150.737C218.791 150.737 150.736 218.791 150.736 302.74C150.736 386.689 218.791 454.744 302.74 454.744Z" fill="white"/>
</mask>
<g mask="url(#mask0_84_492)">
<path d="M454.743 150.737H150.736V454.744H454.743V150.737Z" fill="#FDDD00"/>
</g>
<mask id="mask1_84_492" style="mask-type:alpha" maskUnits="userSpaceOnUse" x="135" y="100" width="335" height="355">
<path fill-rule="evenodd" clip-rule="evenodd" d="M150.736 302.74C150.736 386.722 218.758 454.744 302.74 454.744C386.722 454.744 454.743 386.722 454.743 302.74H469.944V100.069H135.536V302.74H150.736Z" fill="white"/>
</mask>
<g mask="url(#mask1_84_492)">
<path fill-rule="evenodd" clip-rule="evenodd" d="M333.141 328.834V352.141H338.207C388.622 352.141 429.409 392.929 429.409 443.344V454.744H176.07V443.344C176.07 392.929 216.858 352.141 267.272 352.141H272.339V328.834C250.552 318.447 234.845 297.294 232.185 272.213C224.838 271.2 219.138 264.866 219.138 257.139V239.406C219.138 231.932 224.585 225.599 231.805 224.459V216.605C231.805 177.464 263.599 145.67 302.74 145.67C341.881 145.67 373.675 177.464 373.675 216.605V224.459C380.895 225.725 386.342 231.932 386.342 239.406V257.139C386.342 264.866 380.642 271.2 373.295 272.213C370.635 297.294 354.928 318.447 333.141 328.834Z" fill="#D0C6AC"/>
<mask id="mask2_84_492" style="mask-type:alpha" maskUnits="userSpaceOnUse" x="176" y="145" width="254" height="310">
<path fill-rule="evenodd" clip-rule="evenodd" d="M333.141 328.834V352.141H338.207C388.622 352.141 429.409 392.929 429.409 443.344V454.744H176.07V443.344C176.07 392.929 216.858 352.141 267.272 352.141H272.339V328.834C250.552 318.447 234.845 297.294 232.185 272.213C224.838 271.2 219.138 264.866 219.138 257.139V239.406C219.138 231.932 224.585 225.599 231.805 224.459V216.605C231.805 177.464 263.599 145.67 302.74 145.67C341.881 145.67 373.675 177.464 373.675 216.605V224.459C380.895 225.725 386.342 231.932 386.342 239.406V257.139C386.342 264.866 380.642 271.2 373.295 272.213C370.635 297.294 354.928 318.447 333.141 328.834Z" fill="white"/>
</mask>
<g mask="url(#mask2_84_492)">
<path d="M510.478 145.67H176.07V500.345H510.478V145.67Z" fill="#FFDBB4"/>
</g>
<mask id="mask3_84_492" style="mask-type:alpha" maskUnits="userSpaceOnUse" x="176" y="145" width="254" height="310">
<path fill-rule="evenodd" clip-rule="evenodd" d="M333.141 328.834V352.141H338.207C388.622 352.141 429.409 392.929 429.409 443.344V454.744H176.07V443.344C176.07 392.929 216.858 352.141 267.272 352.141H272.339V328.834C250.552 318.447 234.845 297.294 232.185 272.213C224.838 271.2 219.138 264.866 219.138 257.139V239.406C219.138 231.932 224.585 225.599 231.805 224.459V216.605C231.805 177.464 263.599 145.67 302.74 145.67C341.881 145.67 373.675 177.464 373.675 216.605V224.459C380.895 225.725 386.342 231.932 386.342 239.406V257.139C386.342 264.866 380.642 271.2 373.295 272.213C370.635 297.294 354.928 318.447 333.141 328.834Z" fill="white"/>
</mask>
<g mask="url(#mask3_84_492)">
<path fill-rule="evenodd" clip-rule="evenodd" d="M373.675 245.739V274.873C373.675 314.014 341.881 345.808 302.74 345.808C263.599 345.808 231.805 314.014 231.805 274.873V245.739V264.739C231.805 303.88 263.599 335.674 302.74 335.674C341.881 335.674 373.675 303.88 373.675 264.739V245.739Z" fill="black" fill-opacity="0.1"/>
</g>
<path fill-rule="evenodd" clip-rule="evenodd" d="M345.808 352.521C392.675 356.321 429.409 395.589 429.409 443.47V454.744H176.07V443.47C176.07 395.209 213.565 355.688 260.939 352.395C260.939 352.901 260.939 353.281 260.939 353.788C260.939 368.862 279.939 381.022 303.373 381.022C326.807 381.022 345.808 368.862 345.808 353.788C345.808 353.408 345.808 352.901 345.808 352.521Z" fill="#E6E6E6"/>
<mask id="mask4_84_492" style="mask-type:alpha" maskUnits="userSpaceOnUse" x="176" y="352" width="254" height="103">
<path fill-rule="evenodd" clip-rule="evenodd" d="M345.808 352.521C392.675 356.322 429.409 395.589 429.409 443.47V454.744H176.07V443.47C176.07 395.209 213.565 355.688 260.939 352.395C260.939 352.901 260.939 353.281 260.939 353.788C260.939 368.862 279.939 381.022 303.373 381.022C326.807 381.022 345.808 368.862 345.808 353.788C345.808 353.408 345.808 352.901 345.808 352.521Z" fill="white"/>
</mask>
<g mask="url(#mask4_84_492)">
<path d="M469.944 315.407H135.536V454.744H469.944V315.407Z" fill="#262E33"/>
</g>
<mask id="mask5_84_492" style="mask-type:alpha" maskUnits="userSpaceOnUse" x="176" y="352" width="254" height="103">
<path fill-rule="evenodd" clip-rule="evenodd" d="M345.808 352.521C392.675 356.322 429.409 395.589 429.409 443.47V454.744H176.07V443.47C176.07 395.209 213.565 355.688 260.939 352.395C260.939 352.901 260.939 353.281 260.939 353.788C260.939 368.862 279.939 381.022 303.373 381.022C326.807 381.022 345.808 368.862 345.808 353.788C345.808 353.408 345.808 352.901 345.808 352.521Z" fill="white"/>
</mask>
<g mask="url(#mask5_84_492)">
<g opacity="0.6">
<g opacity="0.6">
<path opacity="0.6" d="M303.373 389.762C331.076 389.762 353.534 374.506 353.534 355.688C353.534 336.869 331.076 321.614 303.373 321.614C275.67 321.614 253.212 336.869 253.212 355.688C253.212 374.506 275.67 389.762 303.373 389.762Z" fill="black" fill-opacity="0.16"/>
</g>
</g>
</g>
<path fill-rule="evenodd" clip-rule="evenodd" d="M263.219 352.268C214.705 354.421 176.07 394.449 176.07 443.47V454.744H263.979C259.672 439.417 257.139 421.43 257.139 402.176C257.139 384.062 259.292 366.962 263.219 352.268ZM342.767 454.744H429.409V443.47C429.409 394.956 391.409 355.181 343.527 352.395C347.328 367.088 349.608 384.062 349.608 402.176C349.608 421.43 347.074 439.417 342.767 454.744Z" fill="#3A4C5A"/>
<path fill-rule="evenodd" clip-rule="evenodd" d="M364.808 424.343L376.968 415.223C378.741 413.83 381.275 413.83 383.175 415.223L391.408 421.81L364.808 424.343Z" fill="#E6E6E6"/>
<path fill-rule="evenodd" clip-rule="evenodd" d="M263.472 350.875C258.405 375.322 260.559 410.029 269.806 454.744H249.538L231.805 409.143L239.405 397.742L231.805 390.142L255.872 352.141C258.405 351.381 260.939 350.875 263.472 350.875Z" fill="#2F4351"/>
<path fill-rule="evenodd" clip-rule="evenodd" d="M342.007 350.875C347.074 375.322 344.921 410.029 335.674 454.744H355.941L373.675 409.143L366.075 397.742L373.675 390.142L349.607 352.141C347.074 351.381 344.541 350.875 342.007 350.875Z" fill="#2F4351"/>
<path fill-rule="evenodd" clip-rule="evenodd" d="M278.799 288.933C280.192 300.967 290.326 310.34 302.739 310.34C315.153 310.34 325.413 300.967 326.68 288.807C326.807 287.793 325.667 286.273 324.4 286.273C305.526 286.273 291.086 286.273 281.332 286.273C279.939 286.273 278.672 287.793 278.799 288.933Z" fill="black" fill-opacity="0.7"/>
<mask id="mask6_84_492" style="mask-type:alpha" maskUnits="userSpaceOnUse" x="278" y="286" width="49" height="25">
<path fill-rule="evenodd" clip-rule="evenodd" d="M278.799 288.933C280.192 300.967 290.326 310.34 302.739 310.34C315.153 310.34 325.413 300.967 326.68 288.807C326.807 287.793 325.667 286.273 324.4 286.273C305.526 286.273 291.086 286.273 281.332 286.273C279.939 286.273 278.672 287.793 278.799 288.933Z" fill="white"/>
</mask>
<g mask="url(#mask6_84_492)">
<path fill-rule="evenodd" clip-rule="evenodd" d="M290.073 272.34H316.673C320.22 272.34 323.007 275.126 323.007 278.673V286.273C323.007 289.82 320.22 292.607 316.673 292.607H290.073C286.526 292.607 283.739 289.82 283.739 286.273V278.673C283.739 275.126 286.526 272.34 290.073 272.34Z" fill="white"/>
</g>
<mask id="mask7_84_492" style="mask-type:alpha" maskUnits="userSpaceOnUse" x="278" y="286" width="49" height="25">
<path fill-rule="evenodd" clip-rule="evenodd" d="M278.799 288.933C280.192 300.967 290.326 310.34 302.739 310.34C315.153 310.34 325.413 300.967 326.68 288.807C326.807 287.793 325.667 286.273 324.4 286.273C305.526 286.273 291.086 286.273 281.332 286.273C279.939 286.273 278.672 287.793 278.799 288.933Z" fill="white"/>
</mask>
<g mask="url(#mask7_84_492)">
<path d="M296.406 328.074C304.102 328.074 310.34 321.836 310.34 314.14C310.34 306.445 304.102 300.207 296.406 300.207C288.711 300.207 282.473 306.445 282.473 314.14C282.473 321.836 288.711 328.074 296.406 328.074Z" fill="#FF4F6D"/>
<path d="M309.073 328.074C316.769 328.074 323.007 321.836 323.007 314.14C323.007 306.445 316.769 300.207 309.073 300.207C301.378 300.207 295.14 306.445 295.14 314.14C295.14 321.836 301.378 328.074 309.073 328.074Z" fill="#FF4F6D"/>
</g>
<path fill-rule="evenodd" clip-rule="evenodd" d="M287.539 264.739C287.539 270.313 294.379 274.873 302.739 274.873C311.1 274.873 317.94 270.313 317.94 264.739" fill="black" fill-opacity="0.16"/>
<path fill-rule="evenodd" clip-rule="evenodd" d="M269.804 248.272C281.964 248.272 287.538 253.973 287.538 245.106C287.538 236.239 279.558 230.539 269.804 230.539C260.05 230.539 252.07 236.365 252.07 245.232C252.07 254.099 257.644 248.272 269.804 248.272Z" fill="white"/>
<mask id="mask8_84_492" style="mask-type:alpha" maskUnits="userSpaceOnUse" x="252" y="230" width="36" height="21">
<path fill-rule="evenodd" clip-rule="evenodd" d="M269.804 248.272C281.964 248.272 287.538 253.973 287.538 245.106C287.538 236.239 279.558 230.539 269.804 230.539C260.05 230.539 252.07 236.365 252.07 245.232C252.07 254.099 257.644 248.272 269.804 248.272Z" fill="white"/>
</mask>
<g mask="url(#mask8_84_492)">
<path d="M269.804 250.806C274.002 250.806 277.404 247.403 277.404 243.206C277.404 239.008 274.002 235.605 269.804 235.605C265.607 235.605 262.204 239.008 262.204 243.206C262.204 247.403 265.607 250.806 269.804 250.806Z" fill="black" fill-opacity="0.7"/>
</g>
<path fill-rule="evenodd" clip-rule="evenodd" d="M335.672 248.272C347.832 248.272 353.406 253.973 353.406 245.106C353.406 236.239 345.426 230.539 335.672 230.539C325.919 230.539 317.938 236.365 317.938 245.232C317.938 254.099 323.512 248.272 335.672 248.272Z" fill="white"/>
<mask id="mask9_84_492" style="mask-type:alpha" maskUnits="userSpaceOnUse" x="317" y="230" width="37" height="21">
<path fill-rule="evenodd" clip-rule="evenodd" d="M335.672 248.272C347.832 248.272 353.406 253.973 353.406 245.106C353.406 236.239 345.426 230.539 335.672 230.539C325.919 230.539 317.938 236.365 317.938 245.232C317.938 254.099 323.512 248.272 335.672 248.272Z" fill="white"/>
</mask>
<g mask="url(#mask9_84_492)">
<path d="M335.672 250.806C339.87 250.806 343.273 247.403 343.273 243.206C343.273 239.008 339.87 235.605 335.672 235.605C331.475 235.605 328.072 239.008 328.072 243.206C328.072 247.403 331.475 250.806 335.672 250.806Z" fill="black" fill-opacity="0.7"/>
</g>
<path d="M251.564 225.725C256.504 218.758 270.058 214.832 281.838 217.745C283.231 218.125 284.625 217.238 284.878 215.845C285.258 214.452 284.371 213.058 282.978 212.805C269.424 209.385 253.717 213.945 247.511 222.685C246.751 223.825 247.004 225.345 248.144 226.232C249.284 227.119 250.804 226.865 251.564 225.725Z" fill="black" fill-opacity="0.6"/>
<path d="M353.913 225.725C348.973 218.758 335.419 214.832 323.639 217.745C322.246 218.125 320.852 217.238 320.599 215.845C320.346 214.452 321.106 213.058 322.499 212.805C336.053 209.512 351.886 213.945 358.093 222.812C358.853 223.952 358.6 225.472 357.46 226.359C356.32 227.245 354.673 226.865 353.913 225.725Z" fill="black" fill-opacity="0.6"/>
<path fill-rule="evenodd" clip-rule="evenodd" d="M253.72 165.937C253.847 165.81 253.467 165.81 252.58 165.81C253.594 165.937 253.974 165.937 253.72 165.937ZM243.333 146.05C243.333 146.05 243.333 146.303 243.333 146.05V146.05ZM379.756 189.751C379.376 185.571 378.87 181.391 377.856 177.211C377.096 173.917 375.956 170.877 374.69 167.711C373.93 165.81 372.156 163.277 371.903 161.25C371.65 159.224 373.296 157.07 373.55 154.664C373.93 152.383 373.803 149.977 373.296 147.823C372.283 142.757 368.736 137.943 363.289 136.676C362.023 136.423 359.489 136.803 358.729 136.043C357.716 135.283 357.083 132.496 356.196 131.356C353.662 128.19 349.736 126.163 345.556 126.923C342.516 127.43 344.289 128.063 342.009 126.29C340.742 125.276 339.729 123.756 338.589 122.743C336.689 121.096 334.535 119.703 332.382 118.563C326.555 115.523 319.968 113.369 313.635 112.356C301.855 110.456 289.314 112.103 277.914 115.143C272.214 116.663 266.514 118.563 261.32 121.096C259.04 122.236 257.774 123.123 255.367 123.376C251.693 123.883 248.527 123.756 244.98 125.403C234.213 130.216 229.273 141.49 233.453 152.257C234.34 154.41 235.48 156.31 237 158.084C238.9 160.237 239.66 159.73 238.013 162.264C235.48 165.937 233.453 169.864 231.68 173.917C227.246 184.431 226.486 196.464 226.74 207.738C226.866 211.665 226.993 215.718 227.626 219.645C227.88 221.292 228.006 224.585 229.273 225.852C229.906 226.485 230.793 226.865 231.806 226.612C233.96 225.979 233.2 224.458 233.326 222.938C233.58 215.465 233.2 208.878 234.973 201.531C236.24 196.084 238.52 191.144 241.307 186.331C244.853 180.124 248.78 174.677 253.72 169.357C254.86 168.091 255.114 167.584 256.634 167.457C257.774 167.33 259.547 168.217 260.687 168.471C263.22 169.104 265.754 169.737 268.287 170.117C272.974 170.877 277.661 170.877 282.474 170.751C291.848 170.497 301.348 169.737 310.468 167.457C316.548 165.937 321.868 163.024 327.695 160.997C327.822 160.997 329.215 159.984 329.469 159.984C329.849 159.984 332.002 162.264 332.382 162.517C335.169 164.67 338.335 165.684 341.376 167.33C345.176 169.484 341.502 166.444 343.529 169.104C344.162 169.864 344.416 171.257 344.922 172.144C346.442 174.931 348.596 177.337 351.129 179.237C353.662 181.137 357.336 182.024 358.603 184.431C359.616 186.331 359.869 188.864 360.629 190.891C362.656 196.084 365.443 201.025 368.103 205.965C370.256 209.891 372.663 213.438 372.916 217.998C373.043 219.518 371.523 229.019 375.196 226.232C375.703 225.852 376.97 220.912 377.096 220.152C378.11 216.858 378.363 213.312 378.87 209.891C380.01 203.051 380.263 196.591 379.756 189.751Z" fill="#28354B"/>
<mask id="mask10_84_492" style="mask-type:alpha" maskUnits="userSpaceOnUse" x="226" y="111" width="155" height="116">
<path fill-rule="evenodd" clip-rule="evenodd" d="M253.72 165.937C253.847 165.81 253.467 165.81 252.58 165.81C253.594 165.937 253.974 165.937 253.72 165.937ZM243.333 146.05C243.333 146.05 243.333 146.303 243.333 146.05V146.05ZM379.756 189.751C379.376 185.571 378.87 181.391 377.856 177.211C377.096 173.917 375.956 170.877 374.69 167.711C373.93 165.81 372.156 163.277 371.903 161.25C371.65 159.224 373.296 157.07 373.55 154.664C373.93 152.383 373.803 149.977 373.296 147.823C372.283 142.757 368.736 137.943 363.289 136.676C362.023 136.423 359.489 136.803 358.729 136.043C357.716 135.283 357.083 132.496 356.196 131.356C353.662 128.19 349.736 126.163 345.556 126.923C342.516 127.43 344.289 128.063 342.009 126.29C340.742 125.276 339.729 123.756 338.589 122.743C336.689 121.096 334.535 119.703 332.382 118.563C326.555 115.523 319.968 113.369 313.635 112.356C301.855 110.456 289.314 112.103 277.914 115.143C272.214 116.663 266.514 118.563 261.32 121.096C259.04 122.236 257.774 123.123 255.367 123.376C251.693 123.883 248.527 123.756 244.98 125.403C234.213 130.216 229.273 141.49 233.453 152.257C234.34 154.41 235.48 156.31 237 158.084C238.9 160.237 239.66 159.73 238.013 162.264C235.48 165.937 233.453 169.864 231.68 173.917C227.246 184.431 226.486 196.464 226.74 207.738C226.866 211.665 226.993 215.718 227.626 219.645C227.88 221.292 228.006 224.585 229.273 225.852C229.906 226.485 230.793 226.865 231.806 226.612C233.96 225.979 233.2 224.458 233.326 222.938C233.58 215.465 233.2 208.878 234.973 201.531C236.24 196.084 238.52 191.144 241.307 186.331C244.853 180.124 248.78 174.677 253.72 169.357C254.86 168.091 255.114 167.584 256.634 167.457C257.774 167.33 259.547 168.217 260.687 168.471C263.22 169.104 265.754 169.737 268.287 170.117C272.974 170.877 277.661 170.877 282.474 170.751C291.848 170.497 301.348 169.737 310.468 167.457C316.548 165.937 321.868 163.024 327.695 160.997C327.822 160.997 329.215 159.984 329.469 159.984C329.849 159.984 332.002 162.264 332.382 162.517C335.169 164.67 338.335 165.684 341.376 167.33C345.176 169.484 341.502 166.444 343.529 169.104C344.162 169.864 344.416 171.257 344.922 172.144C346.442 174.931 348.596 177.337 351.129 179.237C353.662 181.137 357.336 182.024 358.603 184.431C359.616 186.331 359.869 188.864 360.629 190.891C362.656 196.084 365.443 201.025 368.103 205.965C370.256 209.891 372.663 213.438 372.916 217.998C373.043 219.518 371.523 229.019 375.196 226.232C375.703 225.852 376.97 220.912 377.096 220.152C378.11 216.858 378.363 213.312 378.87 209.891C380.01 203.051 380.263 196.591 379.756 189.751Z" fill="white"/>
</mask>
<g mask="url(#mask10_84_492)">
<path d="M468.677 100.069H134.27V454.744H468.677V100.069Z" fill="#B58143"/>
</g>
</g>
</svg>
